<svg xmlns="http://www.w3.org/2000/svg" style="display: none;">
  <defs>
    <symbol id="brain" viewBox="0 0 24 24">
      <path d="M23.25 11.625C23.249 10.6316 22.9667 9.65871 22.4358 8.81903C21.9049 7.97936 21.147 7.30719 20.25 6.88031V6.75C20.2491 5.78364 19.9372 4.84323 19.3603 4.06792C18.7835 3.2926 17.9724 2.72357 17.0471 2.44503C16.1217 2.16648 15.1313 2.19321 14.2223 2.52126C13.3134 2.84931 12.5341 3.46126 12 4.26656C11.4658 3.46126 10.6866 2.84931 9.7776 2.52126C8.86863 2.19321 7.8782 2.16648 6.95286 2.44503C6.02752 2.72357 5.21643 3.2926 4.63959 4.06792C4.06276 4.84323 3.75084 5.78364 3.74997 6.75V6.88031C2.85216 7.30602 2.09359 7.97776 1.56242 8.81749C1.03124 9.65722 0.749268 10.6304 0.749268 11.6241C0.749268 12.6177 1.03124 13.5909 1.56242 14.4306C2.09359 15.2704 2.85216 15.9421 3.74997 16.3678V16.5C3.75084 17.4664 4.06276 18.4068 4.63959 19.1821C5.21643 19.9574 6.02752 20.5264 6.95286 20.805C7.8782 21.0835 8.86863 21.0568 9.7776 20.7287C10.6866 20.4007 11.4658 19.7887 12 18.9834C12.5341 19.7887 13.3134 20.4007 14.2223 20.7287C15.1313 21.0568 16.1217 21.0835 17.0471 20.805C17.9724 20.5264 18.7835 19.9574 19.3603 19.1821C19.9372 18.4068 20.2491 17.4664 20.25 16.5V16.3678C21.1469 15.9413 21.9046 15.2694 22.4356 14.4301C22.9665 13.5907 23.2488 12.6182 23.25 11.625ZM8.24997 19.5C7.51023 19.4999 6.79662 19.2265 6.24618 18.7323C5.69575 18.2381 5.3473 17.558 5.26778 16.8225C5.51032 16.8571 5.75498 16.8746 5.99997 16.875H6.74997C6.94888 16.875 7.13965 16.796 7.2803 16.6553C7.42095 16.5147 7.49997 16.3239 7.49997 16.125C7.49997 15.9261 7.42095 15.7353 7.2803 15.5947C7.13965 15.454 6.94888 15.375 6.74997 15.375H5.99997C5.11456 15.376 4.25734 15.0637 3.58008 14.4934C2.90281 13.9231 2.4492 13.1315 2.29954 12.2588C2.14989 11.3862 2.31384 10.4887 2.76239 9.72529C3.21093 8.9619 3.91512 8.38184 4.75028 8.08781C4.89641 8.03608 5.02292 7.94033 5.1124 7.81374C5.20189 7.68716 5.24995 7.53596 5.24997 7.38094V6.75C5.24997 5.95435 5.56604 5.19129 6.12865 4.62868C6.69126 4.06607 7.45432 3.75 8.24997 3.75C9.04562 3.75 9.80868 4.06607 10.3713 4.62868C10.9339 5.19129 11.25 5.95435 11.25 6.75V13.1494C10.4264 12.4086 9.35765 11.9992 8.24997 12C8.05106 12 7.86029 12.079 7.71964 12.2197C7.57899 12.3603 7.49997 12.5511 7.49997 12.75C7.49997 12.9489 7.57899 13.1397 7.71964 13.2803C7.86029 13.421 8.05106 13.5 8.24997 13.5C9.04562 13.5 9.80868 13.8161 10.3713 14.3787C10.9339 14.9413 11.25 15.7044 11.25 16.5C11.25 17.2956 10.9339 18.0587 10.3713 18.6213C9.80868 19.1839 9.04562 19.5 8.24997 19.5ZM18 15.375H17.25C17.0511 15.375 16.8603 15.454 16.7196 15.5947C16.579 15.7353 16.5 15.9261 16.5 16.125C16.5 16.3239 16.579 16.5147 16.7196 16.6553C16.8603 16.796 17.0511 16.875 17.25 16.875H18C18.245 16.8746 18.4896 16.8571 18.7322 16.8225C18.6699 17.3988 18.4419 17.9446 18.076 18.3941C17.7101 18.8436 17.2217 19.1774 16.6701 19.3553C16.1184 19.5331 15.5271 19.5474 14.9675 19.3963C14.4079 19.2452 13.9041 18.9352 13.517 18.5039C13.1298 18.0726 12.8759 17.5383 12.7859 16.9657C12.6959 16.3931 12.7737 15.8067 13.0099 15.2775C13.2462 14.7482 13.6306 14.2986 14.1169 13.9832C14.6031 13.6677 15.1704 13.4999 15.75 13.5C15.9489 13.5 16.1396 13.421 16.2803 13.2803C16.421 13.1397 16.5 12.9489 16.5 12.75C16.5 12.5511 16.421 12.3603 16.2803 12.2197C16.1396 12.079 15.9489 12 15.75 12C14.6423 11.9992 13.5736 12.4086 12.75 13.1494V6.75C12.75 5.95435 13.066 5.19129 13.6287 4.62868C14.1913 4.06607 14.9543 3.75 15.75 3.75C16.5456 3.75 17.3087 4.06607 17.8713 4.62868C18.4339 5.19129 18.75 5.95435 18.75 6.75V7.38094C18.75 7.53596 18.7981 7.68716 18.8875 7.81374C18.977 7.94033 19.1035 8.03608 19.2497 8.08781C20.0848 8.38184 20.789 8.9619 21.2376 9.72529C21.6861 10.4887 21.8501 11.3862 21.7004 12.2588C21.5507 13.1315 21.0971 13.9231 20.4199 14.4934C19.7426 15.0637 18.8854 15.376 18 15.375ZM19.5 10.5C19.5 10.6989 19.421 10.8897 19.2803 11.0303C19.1396 11.171 18.9489 11.25 18.75 11.25H18.375C17.4799 11.25 16.6214 10.8944 15.9885 10.2615C15.3556 9.62855 15 8.77011 15 7.875V7.5C15 7.30109 15.079 7.11032 15.2196 6.96967C15.3603 6.82902 15.5511 6.75 15.75 6.75C15.9489 6.75 16.1396 6.82902 16.2803 6.96967C16.421 7.11032 16.5 7.30109 16.5 7.5V7.875C16.5 8.37228 16.6975 8.84919 17.0491 9.20083C17.4008 9.55246 17.8777 9.75 18.375 9.75H18.75C18.9489 9.75 19.1396 9.82902 19.2803 9.96967C19.421 10.1103 19.5 10.3011 19.5 10.5ZM5.62497 11.25H5.24997C5.05106 11.25 4.86029 11.171 4.71964 11.0303C4.57899 10.8897 4.49997 10.6989 4.49997 10.5C4.49997 10.3011 4.57899 10.1103 4.71964 9.96967C4.86029 9.82902 5.05106 9.75 5.24997 9.75H5.62497C6.12225 9.75 6.59917 9.55246 6.9508 9.20083C7.30243 8.84919 7.49997 8.37228 7.49997 7.875V7.5C7.49997 7.30109 7.57899 7.11032 7.71964 6.96967C7.86029 6.82902 8.05106 6.75 8.24997 6.75C8.44888 6.75 8.63965 6.82902 8.7803 6.96967C8.92095 7.11032 8.99997 7.30109 8.99997 7.5V7.875C8.99997 8.77011 8.64439 9.62855 8.01146 10.2615C7.37852 10.8944 6.52008 11.25 5.62497 11.25Z" fill="currentColor"/>
    </symbol>
    <symbol id="briefcase" viewBox="0 0 24 24">
      <path d="M20.25 5.25H16.5V4.5C16.5 3.90326 16.2629 3.33097 15.841 2.90901C15.419 2.48705 14.8467 2.25 14.25 2.25H9.75C9.15326 2.25 8.58097 2.48705 8.15901 2.90901C7.73705 3.33097 7.5 3.90326 7.5 4.5V5.25H3.75C3.35218 5.25 2.97064 5.40804 2.68934 5.68934C2.40804 5.97064 2.25 6.35218 2.25 6.75V18.75C2.25 19.1478 2.40804 19.5294 2.68934 19.8107C2.97064 20.092 3.35218 20.25 3.75 20.25H20.25C20.6478 20.25 21.0294 20.092 21.3107 19.8107C21.592 19.5294 21.75 19.1478 21.75 18.75V6.75C21.75 6.35218 21.592 5.97064 21.3107 5.68934C21.0294 5.40804 20.6478 5.25 20.25 5.25ZM9 4.5C9 4.30109 9.07902 4.11032 9.21967 3.96967C9.36032 3.82902 9.55109 3.75 9.75 3.75H14.25C14.4489 3.75 14.6397 3.82902 14.7803 3.96967C14.921 4.11032 15 4.30109 15 4.5V5.25H9V4.5ZM20.25 6.75V10.6509C17.7185 12.0289 14.8822 12.7505 12 12.75C9.11794 12.7505 6.28165 12.0292 3.75 10.6519V6.75H20.25ZM20.25 18.75H3.75V12.3412C6.31868 13.5977 9.1405 14.2506 12 14.25C14.8596 14.2501 17.6813 13.5969 20.25 12.3403V18.75ZM9.75 10.5C9.75 10.3011 9.82902 10.1103 9.96967 9.96967C10.1103 9.82902 10.3011 9.75 10.5 9.75H13.5C13.6989 9.75 13.8897 9.82902 14.0303 9.96967C14.171 10.1103 14.25 10.3011 14.25 10.5C14.25 10.6989 14.171 10.8897 14.0303 11.0303C13.8897 11.171 13.6989 11.25 13.5 11.25H10.5C10.3011 11.25 10.1103 11.171 9.96967 11.0303C9.82902 10.8897 9.75 10.6989 9.75 10.5Z" fill="currentColor"/>
    </symbol>
    <symbol id="notebook" viewBox="0 0 24 24">
      <path d="M17.25 10.5C17.25 10.6989 17.171 10.8897 17.0303 11.0303C16.8897 11.171 16.6989 11.25 16.5 11.25H10.5C10.3011 11.25 10.1103 11.171 9.96967 11.0303C9.82902 10.8897 9.75 10.6989 9.75 10.5C9.75 10.3011 9.82902 10.1103 9.96967 9.96967C10.1103 9.82902 10.3011 9.75 10.5 9.75H16.5C16.6989 9.75 16.8897 9.82902 17.0303 9.96967C17.171 10.1103 17.25 10.3011 17.25 10.5ZM16.5 12.75H10.5C10.3011 12.75 10.1103 12.829 9.96967 12.9697C9.82902 13.1103 9.75 13.3011 9.75 13.5C9.75 13.6989 9.82902 13.8897 9.96967 14.0303C10.1103 14.171 10.3011 14.25 10.5 14.25H16.5C16.6989 14.25 16.8897 14.171 17.0303 14.0303C17.171 13.8897 17.25 13.6989 17.25 13.5C17.25 13.3011 17.171 13.1103 17.0303 12.9697C16.8897 12.829 16.6989 12.75 16.5 12.75ZM21 4.5V19.5C21 19.8978 20.842 20.2794 20.5607 20.5607C20.2794 20.842 19.8978 21 19.5 21H4.5C4.10218 21 3.72064 20.842 3.43934 20.5607C3.15804 20.2794 3 19.8978 3 19.5V4.5C3 4.10218 3.15804 3.72064 3.43934 3.43934C3.72064 3.15804 4.10218 3 4.5 3H19.5C19.8978 3 20.2794 3.15804 20.5607 3.43934C20.842 3.72064 21 4.10218 21 4.5ZM4.5 19.5H6.75V4.5H4.5V19.5ZM19.5 19.5V4.5H8.25V19.5H19.5Z" fill="currentColor"/>
    </symbol>
    <symbol id="caret-down" viewBox="0 0 16 16">
      <path d="M13.5306 6.53061L8.5306 11.5306C8.46092 11.6005 8.37813 11.656 8.28696 11.6939C8.1958 11.7317 8.09806 11.7512 7.99935 11.7512C7.90064 11.7512 7.8029 11.7317 7.71173 11.6939C7.62057 11.656 7.53778 11.6005 7.4681 11.5306L2.4681 6.53061C2.3272 6.38972 2.24805 6.19862 2.24805 5.99936C2.24805 5.80011 2.3272 5.60901 2.4681 5.46811C2.60899 5.32722 2.80009 5.24806 2.99935 5.24806C3.19861 5.24806 3.3897 5.32722 3.5306 5.46811L7.99997 9.93749L12.4693 5.46749C12.6102 5.32659 12.8013 5.24744 13.0006 5.24744C13.1999 5.24744 13.391 5.32659 13.5318 5.46749C13.6727 5.60838 13.7519 5.79948 13.7519 5.99874C13.7519 6.198 13.6727 6.38909 13.5318 6.52999L13.5306 6.53061Z" fill="currentColor"/>
    </symbol>
    <symbol id="caret-left" viewBox="0 0 24 24">
      <path d="M15.5307 18.9693C15.6004 19.039 15.6557 19.1217 15.6934 19.2128C15.7311 19.3038 15.7505 19.4014 15.7505 19.4999C15.7505 19.5985 15.7311 19.6961 15.6934 19.7871C15.6557 19.8781 15.6004 19.9609 15.5307 20.0306C15.461 20.1002 15.3783 20.1555 15.2873 20.1932C15.1962 20.2309 15.0986 20.2503 15.0001 20.2503C14.9016 20.2503 14.804 20.2309 14.7129 20.1932C14.6219 20.1555 14.5392 20.1002 14.4695 20.0306L6.96948 12.5306C6.89974 12.4609 6.84443 12.3782 6.80668 12.2871C6.76894 12.1961 6.74951 12.0985 6.74951 11.9999C6.74951 11.9014 6.76894 11.8038 6.80668 11.7127C6.84443 11.6217 6.89974 11.539 6.96948 11.4693L14.4695 3.9693C14.6102 3.82857 14.8011 3.74951 15.0001 3.74951C15.1991 3.74951 15.39 3.82857 15.5307 3.9693C15.6715 4.11003 15.7505 4.30091 15.7505 4.49993C15.7505 4.69895 15.6715 4.88982 15.5307 5.03055L8.56041 11.9999L15.5307 18.9693Z" fill="currentColor"/>
    </symbol>
    <symbol id="caret-right" viewBox="0 0 24 24">
      <path d="M17.0306 12.5306L9.53055 20.0306C9.46087 20.1002 9.37815 20.1555 9.2871 20.1932C9.19606 20.2309 9.09847 20.2503 8.99993 20.2503C8.90138 20.2503 8.8038 20.2309 8.71276 20.1932C8.62171 20.1555 8.53899 20.1002 8.4693 20.0306C8.39962 19.9609 8.34435 19.8781 8.30663 19.7871C8.26892 19.6961 8.24951 19.5985 8.24951 19.4999C8.24951 19.4014 8.26892 19.3038 8.30663 19.2128C8.34435 19.1217 8.39962 19.039 8.4693 18.9693L15.4396 11.9999L8.4693 5.03055C8.32857 4.88982 8.24951 4.69895 8.24951 4.49993C8.24951 4.30091 8.32857 4.11003 8.4693 3.9693C8.61003 3.82857 8.80091 3.74951 8.99993 3.74951C9.19895 3.74951 9.38982 3.82857 9.53055 3.9693L17.0306 11.4693C17.1003 11.539 17.1556 11.6217 17.1933 11.7127C17.2311 11.8038 17.2505 11.9014 17.2505 11.9999C17.2505 12.0985 17.2311 12.1961 17.1933 12.2871C17.1556 12.3782 17.1003 12.4609 17.0306 12.5306Z" fill="currentColor"/>
    </symbol>
    <symbol id="gear-six" viewBox="0 0 24 24">
      <path d="M11.9999 7.49998C11.1099 7.49998 10.2399 7.7639 9.49987 8.25837C8.75985 8.75284 8.18307 9.45564 7.84248 10.2779C7.50188 11.1002 7.41277 12.005 7.5864 12.8779C7.76003 13.7508 8.18862 14.5526 8.81795 15.182C9.44729 15.8113 10.2491 16.2399 11.122 16.4135C11.9949 16.5872 12.8997 16.498 13.722 16.1574C14.5443 15.8168 15.2471 15.2401 15.7415 14.5C16.236 13.76 16.4999 12.89 16.4999 12C16.4987 10.8069 16.0242 9.66302 15.1805 8.81937C14.3369 7.97573 13.193 7.50122 11.9999 7.49998ZM11.9999 15C11.4066 15 10.8266 14.824 10.3332 14.4944C9.83988 14.1647 9.45536 13.6962 9.2283 13.148C9.00123 12.5999 8.94182 11.9967 9.05758 11.4147C9.17333 10.8328 9.45906 10.2982 9.87861 9.87866C10.2982 9.4591 10.8327 9.17338 11.4147 9.05763C11.9966 8.94187 12.5998 9.00128 13.148 9.22834C13.6962 9.45541 14.1647 9.83992 14.4943 10.3333C14.824 10.8266 14.9999 11.4066 14.9999 12C14.9999 12.7956 14.6839 13.5587 14.1213 14.1213C13.5586 14.6839 12.7956 15 11.9999 15ZM22.3068 10.0509C22.2859 9.94531 22.2425 9.84543 22.1796 9.75807C22.1167 9.67072 22.0357 9.59793 21.9421 9.54467L19.1456 7.95092L19.1343 4.79904C19.134 4.69049 19.1101 4.58331 19.0643 4.4849C19.0185 4.38649 18.9518 4.29919 18.869 4.22904C17.8546 3.37095 16.6864 2.71336 15.4265 2.29123C15.3273 2.25765 15.2221 2.24522 15.1178 2.25475C15.0135 2.26428 14.9124 2.29555 14.8209 2.34654L11.9999 3.92342L9.17618 2.34373C9.08464 2.29245 8.98335 2.26094 8.87887 2.25125C8.77439 2.24156 8.66904 2.2539 8.56962 2.28748C7.3107 2.71269 6.14383 3.37279 5.13087 4.23279C5.04815 4.30284 4.9816 4.38999 4.9358 4.48823C4.89 4.58647 4.86603 4.69347 4.86556 4.80186L4.8515 7.95654L2.05493 9.5503C1.96137 9.60356 1.88038 9.67634 1.81745 9.7637C1.75452 9.85105 1.71114 9.95093 1.69025 10.0565C1.43431 11.3427 1.43431 12.6667 1.69025 13.9528C1.71114 14.0584 1.75452 14.1583 1.81745 14.2456C1.88038 14.333 1.96137 14.4058 2.05493 14.459L4.8515 16.0528L4.86275 19.2047C4.86309 19.3132 4.88699 19.4204 4.93279 19.5188C4.9786 19.6172 5.04522 19.7045 5.12806 19.7747C6.1425 20.6328 7.31071 21.2904 8.57056 21.7125C8.66977 21.7461 8.77492 21.7585 8.87923 21.749C8.98354 21.7394 9.08469 21.7082 9.17618 21.6572L11.9999 20.0765L14.8237 21.6562C14.9354 21.7185 15.0614 21.7508 15.1893 21.75C15.2712 21.75 15.3526 21.7367 15.4302 21.7106C16.689 21.286 17.8559 20.6265 18.869 19.7672C18.9517 19.6971 19.0183 19.61 19.0641 19.5117C19.1099 19.4135 19.1338 19.3065 19.1343 19.1981L19.1484 16.0434L21.9449 14.4497C22.0385 14.3964 22.1195 14.3236 22.1824 14.2363C22.2453 14.1489 22.2887 14.049 22.3096 13.9434C22.5641 12.6583 22.5632 11.3357 22.3068 10.0509ZM20.9006 13.3237L18.2221 14.8472C18.1048 14.9139 18.0076 15.0111 17.9409 15.1284C17.8865 15.2222 17.8293 15.3215 17.7712 15.4153C17.6968 15.5335 17.6571 15.6703 17.6568 15.81L17.6427 18.8334C16.9228 19.3988 16.1208 19.8509 15.2643 20.174L12.5624 18.6684C12.4503 18.6064 12.3241 18.5741 12.1959 18.5747H12.1781C12.0646 18.5747 11.9502 18.5747 11.8368 18.5747C11.7026 18.5713 11.57 18.6037 11.4524 18.6684L8.74868 20.1778C7.89041 19.8571 7.08614 19.4072 6.36368 18.8437L6.35337 15.825C6.35291 15.685 6.31329 15.548 6.239 15.4294C6.18087 15.3356 6.12368 15.2419 6.07025 15.1425C6.00399 15.0233 5.90683 14.9242 5.789 14.8556L3.10775 13.3284C2.969 12.4507 2.969 11.5567 3.10775 10.679L5.7815 9.15279C5.89885 9.08607 5.99602 8.9889 6.06275 8.87154C6.11712 8.77779 6.17431 8.67842 6.23243 8.58467C6.30684 8.46645 6.34647 8.32967 6.34681 8.18998L6.36087 5.16654C7.0808 4.60118 7.88286 4.14909 8.73931 3.82592L11.4374 5.33154C11.5549 5.39663 11.6876 5.42901 11.8218 5.42529C11.9352 5.42529 12.0496 5.42529 12.1631 5.42529C12.2972 5.42865 12.4299 5.39629 12.5474 5.33154L15.2512 3.82217C16.1095 4.14286 16.9137 4.59274 17.6362 5.15623L17.6465 8.17498C17.647 8.31495 17.6866 8.45199 17.7609 8.57061C17.819 8.66436 17.8762 8.75811 17.9296 8.85748C17.9959 8.97665 18.093 9.07575 18.2109 9.14436L20.8921 10.6715C21.0327 11.5499 21.0343 12.4449 20.8968 13.3237H20.9006Z" fill="currentColor"/>
    </symbol>
  </defs>
</svg>