<svg xmlns="http://www.w3.org/2000/svg" style="display: none;">
  <defs>
    <symbol id="brain" viewBox="0 0 24 24">
      <path d="M23.25 11.625C23.249 10.6316 22.9667 9.65871 22.4358 8.81903C21.9049 7.97936 21.147 7.30719 20.25 6.88031V6.75C20.2491 5.78364 19.9372 4.84323 19.3603 4.06792C18.7835 3.2926 17.9724 2.72357 17.0471 2.44503C16.1217 2.16648 15.1313 2.19321 14.2223 2.52126C13.3134 2.84931 12.5341 3.46126 12 4.26656C11.4658 3.46126 10.6866 2.84931 9.7776 2.52126C8.86863 2.19321 7.8782 2.16648 6.95286 2.44503C6.02752 2.72357 5.21643 3.2926 4.63959 4.06792C4.06276 4.84323 3.75084 5.78364 3.74997 6.75V6.88031C2.85216 7.30602 2.09359 7.97776 1.56242 8.81749C1.03124 9.65722 0.749268 10.6304 0.749268 11.6241C0.749268 12.6177 1.03124 13.5909 1.56242 14.4306C2.09359 15.2704 2.85216 15.9421 3.74997 16.3678V16.5C3.75084 17.4664 4.06276 18.4068 4.63959 19.1821C5.21643 19.9574 6.02752 20.5264 6.95286 20.805C7.8782 21.0835 8.86863 21.0568 9.7776 20.7287C10.6866 20.4007 11.4658 19.7887 12 18.9834C12.5341 19.7887 13.3134 20.4007 14.2223 20.7287C15.1313 21.0568 16.1217 21.0835 17.0471 20.805C17.9724 20.5264 18.7835 19.9574 19.3603 19.1821C19.9372 18.4068 20.2491 17.4664 20.25 16.5V16.3678C21.1469 15.9413 21.9046 15.2694 22.4356 14.4301C22.9665 13.5907 23.2488 12.6182 23.25 11.625ZM8.24997 19.5C7.51023 19.4999 6.79662 19.2265 6.24618 18.7323C5.69575 18.2381 5.3473 17.558 5.26778 16.8225C5.51032 16.8571 5.75498 16.8746 5.99997 16.875H6.74997C6.94888 16.875 7.13965 16.796 7.2803 16.6553C7.42095 16.5147 7.49997 16.3239 7.49997 16.125C7.49997 15.9261 7.42095 15.7353 7.2803 15.5947C7.13965 15.454 6.94888 15.375 6.74997 15.375H5.99997C5.11456 15.376 4.25734 15.0637 3.58008 14.4934C2.90281 13.9231 2.4492 13.1315 2.29954 12.2588C2.14989 11.3862 2.31384 10.4887 2.76239 9.72529C3.21093 8.9619 3.91512 8.38184 4.75028 8.08781C4.89641 8.03608 5.02292 7.94033 5.1124 7.81374C5.20189 7.68716 5.24995 7.53596 5.24997 7.38094V6.75C5.24997 5.95435 5.56604 5.19129 6.12865 4.62868C6.69126 4.06607 7.45432 3.75 8.24997 3.75C9.04562 3.75 9.80868 4.06607 10.3713 4.62868C10.9339 5.19129 11.25 5.95435 11.25 6.75V13.1494C10.4264 12.4086 9.35765 11.9992 8.24997 12C8.05106 12 7.86029 12.079 7.71964 12.2197C7.57899 12.3603 7.49997 12.5511 7.49997 12.75C7.49997 12.9489 7.57899 13.1397 7.71964 13.2803C7.86029 13.421 8.05106 13.5 8.24997 13.5C9.04562 13.5 9.80868 13.8161 10.3713 14.3787C10.9339 14.9413 11.25 15.7044 11.25 16.5C11.25 17.2956 10.9339 18.0587 10.3713 18.6213C9.80868 19.1839 9.04562 19.5 8.24997 19.5ZM18 15.375H17.25C17.0511 15.375 16.8603 15.454 16.7196 15.5947C16.579 15.7353 16.5 15.9261 16.5 16.125C16.5 16.3239 16.579 16.5147 16.7196 16.6553C16.8603 16.796 17.0511 16.875 17.25 16.875H18C18.245 16.8746 18.4896 16.8571 18.7322 16.8225C18.6699 17.3988 18.4419 17.9446 18.076 18.3941C17.7101 18.8436 17.2217 19.1774 16.6701 19.3553C16.1184 19.5331 15.5271 19.5474 14.9675 19.3963C14.4079 19.2452 13.9041 18.9352 13.517 18.5039C13.1298 18.0726 12.8759 17.5383 12.7859 16.9657C12.6959 16.3931 12.7737 15.8067 13.0099 15.2775C13.2462 14.7482 13.6306 14.2986 14.1169 13.9832C14.6031 13.6677 15.1704 13.4999 15.75 13.5C15.9489 13.5 16.1396 13.421 16.2803 13.2803C16.421 13.1397 16.5 12.9489 16.5 12.75C16.5 12.5511 16.421 12.3603 16.2803 12.2197C16.1396 12.079 15.9489 12 15.75 12C14.6423 11.9992 13.5736 12.4086 12.75 13.1494V6.75C12.75 5.95435 13.066 5.19129 13.6287 4.62868C14.1913 4.06607 14.9543 3.75 15.75 3.75C16.5456 3.75 17.3087 4.06607 17.8713 4.62868C18.4339 5.19129 18.75 5.95435 18.75 6.75V7.38094C18.75 7.53596 18.7981 7.68716 18.8875 7.81374C18.977 7.94033 19.1035 8.03608 19.2497 8.08781C20.0848 8.38184 20.789 8.9619 21.2376 9.72529C21.6861 10.4887 21.8501 11.3862 21.7004 12.2588C21.5507 13.1315 21.0971 13.9231 20.4199 14.4934C19.7426 15.0637 18.8854 15.376 18 15.375ZM19.5 10.5C19.5 10.6989 19.421 10.8897 19.2803 11.0303C19.1396 11.171 18.9489 11.25 18.75 11.25H18.375C17.4799 11.25 16.6214 10.8944 15.9885 10.2615C15.3556 9.62855 15 8.77011 15 7.875V7.5C15 7.30109 15.079 7.11032 15.2196 6.96967C15.3603 6.82902 15.5511 6.75 15.75 6.75C15.9489 6.75 16.1396 6.82902 16.2803 6.96967C16.421 7.11032 16.5 7.30109 16.5 7.5V7.875C16.5 8.37228 16.6975 8.84919 17.0491 9.20083C17.4008 9.55246 17.8777 9.75 18.375 9.75H18.75C18.9489 9.75 19.1396 9.82902 19.2803 9.96967C19.421 10.1103 19.5 10.3011 19.5 10.5ZM5.62497 11.25H5.24997C5.05106 11.25 4.86029 11.171 4.71964 11.0303C4.57899 10.8897 4.49997 10.6989 4.49997 10.5C4.49997 10.3011 4.57899 10.1103 4.71964 9.96967C4.86029 9.82902 5.05106 9.75 5.24997 9.75H5.62497C6.12225 9.75 6.59917 9.55246 6.9508 9.20083C7.30243 8.84919 7.49997 8.37228 7.49997 7.875V7.5C7.49997 7.30109 7.57899 7.11032 7.71964 6.96967C7.86029 6.82902 8.05106 6.75 8.24997 6.75C8.44888 6.75 8.63965 6.82902 8.7803 6.96967C8.92095 7.11032 8.99997 7.30109 8.99997 7.5V7.875C8.99997 8.77011 8.64439 9.62855 8.01146 10.2615C7.37852 10.8944 6.52008 11.25 5.62497 11.25Z" fill="currentColor"/>
    </symbol>
    <symbol id="briefcase" viewBox="0 0 24 24">
      <path d="M20.25 5.25H16.5V4.5C16.5 3.90326 16.2629 3.33097 15.841 2.90901C15.419 2.48705 14.8467 2.25 14.25 2.25H9.75C9.15326 2.25 8.58097 2.48705 8.15901 2.90901C7.73705 3.33097 7.5 3.90326 7.5 4.5V5.25H3.75C3.35218 5.25 2.97064 5.40804 2.68934 5.68934C2.40804 5.97064 2.25 6.35218 2.25 6.75V18.75C2.25 19.1478 2.40804 19.5294 2.68934 19.8107C2.97064 20.092 3.35218 20.25 3.75 20.25H20.25C20.6478 20.25 21.0294 20.092 21.3107 19.8107C21.592 19.5294 21.75 19.1478 21.75 18.75V6.75C21.75 6.35218 21.592 5.97064 21.3107 5.68934C21.0294 5.40804 20.6478 5.25 20.25 5.25ZM9 4.5C9 4.30109 9.07902 4.11032 9.21967 3.96967C9.36032 3.82902 9.55109 3.75 9.75 3.75H14.25C14.4489 3.75 14.6397 3.82902 14.7803 3.96967C14.921 4.11032 15 4.30109 15 4.5V5.25H9V4.5ZM20.25 6.75V10.6509C17.7185 12.0289 14.8822 12.7505 12 12.75C9.11794 12.7505 6.28165 12.0292 3.75 10.6519V6.75H20.25ZM20.25 18.75H3.75V12.3412C6.31868 13.5977 9.1405 14.2506 12 14.25C14.8596 14.2501 17.6813 13.5969 20.25 12.3403V18.75ZM9.75 10.5C9.75 10.3011 9.82902 10.1103 9.96967 9.96967C10.1103 9.82902 10.3011 9.75 10.5 9.75H13.5C13.6989 9.75 13.8897 9.82902 14.0303 9.96967C14.171 10.1103 14.25 10.3011 14.25 10.5C14.25 10.6989 14.171 10.8897 14.0303 11.0303C13.8897 11.171 13.6989 11.25 13.5 11.25H10.5C10.3011 11.25 10.1103 11.171 9.96967 11.0303C9.82902 10.8897 9.75 10.6989 9.75 10.5Z" fill="currentColor"/>
    </symbol>
    <symbol id="notebook" viewBox="0 0 24 24">
      <path d="M17.25 10.5C17.25 10.6989 17.171 10.8897 17.0303 11.0303C16.8897 11.171 16.6989 11.25 16.5 11.25H10.5C10.3011 11.25 10.1103 11.171 9.96967 11.0303C9.82902 10.8897 9.75 10.6989 9.75 10.5C9.75 10.3011 9.82902 10.1103 9.96967 9.96967C10.1103 9.82902 10.3011 9.75 10.5 9.75H16.5C16.6989 9.75 16.8897 9.82902 17.0303 9.96967C17.171 10.1103 17.25 10.3011 17.25 10.5ZM16.5 12.75H10.5C10.3011 12.75 10.1103 12.829 9.96967 12.9697C9.82902 13.1103 9.75 13.3011 9.75 13.5C9.75 13.6989 9.82902 13.8897 9.96967 14.0303C10.1103 14.171 10.3011 14.25 10.5 14.25H16.5C16.6989 14.25 16.8897 14.171 17.0303 14.0303C17.171 13.8897 17.25 13.6989 17.25 13.5C17.25 13.3011 17.171 13.1103 17.0303 12.9697C16.8897 12.829 16.6989 12.75 16.5 12.75ZM21 4.5V19.5C21 19.8978 20.842 20.2794 20.5607 20.5607C20.2794 20.842 19.8978 21 19.5 21H4.5C4.10218 21 3.72064 20.842 3.43934 20.5607C3.15804 20.2794 3 19.8978 3 19.5V4.5C3 4.10218 3.15804 3.72064 3.43934 3.43934C3.72064 3.15804 4.10218 3 4.5 3H19.5C19.8978 3 20.2794 3.15804 20.5607 3.43934C20.842 3.72064 21 4.10218 21 4.5ZM4.5 19.5H6.75V4.5H4.5V19.5ZM19.5 19.5V4.5H8.25V19.5H19.5Z" fill="currentColor"/>
    </symbol>
    <symbol id="caret-down" viewBox="0 0 16 16">
      <path d="M13.5306 6.53061L8.5306 11.5306C8.46092 11.6005 8.37813 11.656 8.28696 11.6939C8.1958 11.7317 8.09806 11.7512 7.99935 11.7512C7.90064 11.7512 7.8029 11.7317 7.71173 11.6939C7.62057 11.656 7.53778 11.6005 7.4681 11.5306L2.4681 6.53061C2.3272 6.38972 2.24805 6.19862 2.24805 5.99936C2.24805 5.80011 2.3272 5.60901 2.4681 5.46811C2.60899 5.32722 2.80009 5.24806 2.99935 5.24806C3.19861 5.24806 3.3897 5.32722 3.5306 5.46811L7.99997 9.93749L12.4693 5.46749C12.6102 5.32659 12.8013 5.24744 13.0006 5.24744C13.1999 5.24744 13.391 5.32659 13.5318 5.46749C13.6727 5.60838 13.7519 5.79948 13.7519 5.99874C13.7519 6.198 13.6727 6.38909 13.5318 6.52999L13.5306 6.53061Z" fill="currentColor"/>
    </symbol>
    <symbol id="caret-left" viewBox="0 0 24 24">
      <path d="M15.5307 18.9693C15.6004 19.039 15.6557 19.1217 15.6934 19.2128C15.7311 19.3038 15.7505 19.4014 15.7505 19.4999C15.7505 19.5985 15.7311 19.6961 15.6934 19.7871C15.6557 19.8781 15.6004 19.9609 15.5307 20.0306C15.461 20.1002 15.3783 20.1555 15.2873 20.1932C15.1962 20.2309 15.0986 20.2503 15.0001 20.2503C14.9016 20.2503 14.804 20.2309 14.7129 20.1932C14.6219 20.1555 14.5392 20.1002 14.4695 20.0306L6.96948 12.5306C6.89974 12.4609 6.84443 12.3782 6.80668 12.2871C6.76894 12.1961 6.74951 12.0985 6.74951 11.9999C6.74951 11.9014 6.76894 11.8038 6.80668 11.7127C6.84443 11.6217 6.89974 11.539 6.96948 11.4693L14.4695 3.9693C14.6102 3.82857 14.8011 3.74951 15.0001 3.74951C15.1991 3.74951 15.39 3.82857 15.5307 3.9693C15.6715 4.11003 15.7505 4.30091 15.7505 4.49993C15.7505 4.69895 15.6715 4.88982 15.5307 5.03055L8.56041 11.9999L15.5307 18.9693Z" fill="currentColor"/>
    </symbol>
    <symbol id="caret-right" viewBox="0 0 24 24">
      <path d="M17.0306 12.5306L9.53055 20.0306C9.46087 20.1002 9.37815 20.1555 9.2871 20.1932C9.19606 20.2309 9.09847 20.2503 8.99993 20.2503C8.90138 20.2503 8.8038 20.2309 8.71276 20.1932C8.62171 20.1555 8.53899 20.1002 8.4693 20.0306C8.39962 19.9609 8.34435 19.8781 8.30663 19.7871C8.26892 19.6961 8.24951 19.5985 8.24951 19.4999C8.24951 19.4014 8.26892 19.3038 8.30663 19.2128C8.34435 19.1217 8.39962 19.039 8.4693 18.9693L15.4396 11.9999L8.4693 5.03055C8.32857 4.88982 8.24951 4.69895 8.24951 4.49993C8.24951 4.30091 8.32857 4.11003 8.4693 3.9693C8.61003 3.82857 8.80091 3.74951 8.99993 3.74951C9.19895 3.74951 9.38982 3.82857 9.53055 3.9693L17.0306 11.4693C17.1003 11.539 17.1556 11.6217 17.1933 11.7127C17.2311 11.8038 17.2505 11.9014 17.2505 11.9999C17.2505 12.0985 17.2311 12.1961 17.1933 12.2871C17.1556 12.3782 17.1003 12.4609 17.0306 12.5306Z" fill="currentColor"/>
    </symbol>
    <symbol id="gear-six" viewBox="0 0 24 24">
      <path d="M11.9999 7.49998C11.1099 7.49998 10.2399 7.7639 9.49987 8.25837C8.75985 8.75284 8.18307 9.45564 7.84248 10.2779C7.50188 11.1002 7.41277 12.005 7.5864 12.8779C7.76003 13.7508 8.18862 14.5526 8.81795 15.182C9.44729 15.8113 10.2491 16.2399 11.122 16.4135C11.9949 16.5872 12.8997 16.498 13.722 16.1574C14.5443 15.8168 15.2471 15.2401 15.7415 14.5C16.236 13.76 16.4999 12.89 16.4999 12C16.4987 10.8069 16.0242 9.66302 15.1805 8.81937C14.3369 7.97573 13.193 7.50122 11.9999 7.49998ZM11.9999 15C11.4066 15 10.8266 14.824 10.3332 14.4944C9.83988 14.1647 9.45536 13.6962 9.2283 13.148C9.00123 12.5999 8.94182 11.9967 9.05758 11.4147C9.17333 10.8328 9.45906 10.2982 9.87861 9.87866C10.2982 9.4591 10.8327 9.17338 11.4147 9.05763C11.9966 8.94187 12.5998 9.00128 13.148 9.22834C13.6962 9.45541 14.1647 9.83992 14.4943 10.3333C14.824 10.8266 14.9999 11.4066 14.9999 12C14.9999 12.7956 14.6839 13.5587 14.1213 14.1213C13.5586 14.6839 12.7956 15 11.9999 15ZM22.3068 10.0509C22.2859 9.94531 22.2425 9.84543 22.1796 9.75807C22.1167 9.67072 22.0357 9.59793 21.9421 9.54467L19.1456 7.95092L19.1343 4.79904C19.134 4.69049 19.1101 4.58331 19.0643 4.4849C19.0185 4.38649 18.9518 4.29919 18.869 4.22904C17.8546 3.37095 16.6864 2.71336 15.4265 2.29123C15.3273 2.25765 15.2221 2.24522 15.1178 2.25475C15.0135 2.26428 14.9124 2.29555 14.8209 2.34654L11.9999 3.92342L9.17618 2.34373C9.08464 2.29245 8.98335 2.26094 8.87887 2.25125C8.77439 2.24156 8.66904 2.2539 8.56962 2.28748C7.3107 2.71269 6.14383 3.37279 5.13087 4.23279C5.04815 4.30284 4.9816 4.38999 4.9358 4.48823C4.89 4.58647 4.86603 4.69347 4.86556 4.80186L4.8515 7.95654L2.05493 9.5503C1.96137 9.60356 1.88038 9.67634 1.81745 9.7637C1.75452 9.85105 1.71114 9.95093 1.69025 10.0565C1.43431 11.3427 1.43431 12.6667 1.69025 13.9528C1.71114 14.0584 1.75452 14.1583 1.81745 14.2456C1.88038 14.333 1.96137 14.4058 2.05493 14.459L4.8515 16.0528L4.86275 19.2047C4.86309 19.3132 4.88699 19.4204 4.93279 19.5188C4.9786 19.6172 5.04522 19.7045 5.12806 19.7747C6.1425 20.6328 7.31071 21.2904 8.57056 21.7125C8.66977 21.7461 8.77492 21.7585 8.87923 21.749C8.98354 21.7394 9.08469 21.7082 9.17618 21.6572L11.9999 20.0765L14.8237 21.6562C14.9354 21.7185 15.0614 21.7508 15.1893 21.75C15.2712 21.75 15.3526 21.7367 15.4302 21.7106C16.689 21.286 17.8559 20.6265 18.869 19.7672C18.9517 19.6971 19.0183 19.61 19.0641 19.5117C19.1099 19.4135 19.1338 19.3065 19.1343 19.1981L19.1484 16.0434L21.9449 14.4497C22.0385 14.3964 22.1195 14.3236 22.1824 14.2363C22.2453 14.1489 22.2887 14.049 22.3096 13.9434C22.5641 12.6583 22.5632 11.3357 22.3068 10.0509ZM20.9006 13.3237L18.2221 14.8472C18.1048 14.9139 18.0076 15.0111 17.9409 15.1284C17.8865 15.2222 17.8293 15.3215 17.7712 15.4153C17.6968 15.5335 17.6571 15.6703 17.6568 15.81L17.6427 18.8334C16.9228 19.3988 16.1208 19.8509 15.2643 20.174L12.5624 18.6684C12.4503 18.6064 12.3241 18.5741 12.1959 18.5747H12.1781C12.0646 18.5747 11.9502 18.5747 11.8368 18.5747C11.7026 18.5713 11.57 18.6037 11.4524 18.6684L8.74868 20.1778C7.89041 19.8571 7.08614 19.4072 6.36368 18.8437L6.35337 15.825C6.35291 15.685 6.31329 15.548 6.239 15.4294C6.18087 15.3356 6.12368 15.2419 6.07025 15.1425C6.00399 15.0233 5.90683 14.9242 5.789 14.8556L3.10775 13.3284C2.969 12.4507 2.969 11.5567 3.10775 10.679L5.7815 9.15279C5.89885 9.08607 5.99602 8.9889 6.06275 8.87154C6.11712 8.77779 6.17431 8.67842 6.23243 8.58467C6.30684 8.46645 6.34647 8.32967 6.34681 8.18998L6.36087 5.16654C7.0808 4.60118 7.88286 4.14909 8.73931 3.82592L11.4374 5.33154C11.5549 5.39663 11.6876 5.42901 11.8218 5.42529C11.9352 5.42529 12.0496 5.42529 12.1631 5.42529C12.2972 5.42865 12.4299 5.39629 12.5474 5.33154L15.2512 3.82217C16.1095 4.14286 16.9137 4.59274 17.6362 5.15623L17.6465 8.17498C17.647 8.31495 17.6866 8.45199 17.7609 8.57061C17.819 8.66436 17.8762 8.75811 17.9296 8.85748C17.9959 8.97665 18.093 9.07575 18.2109 9.14436L20.8921 10.6715C21.0327 11.5499 21.0343 12.4449 20.8968 13.3237H20.9006Z" fill="currentColor"/>
    </symbol>
    <symbol id="check" viewBox="0 0 16 16">
      <path d="M14.5306 5.03063L6.5306 13.0306C6.46092 13.1006 6.37813 13.156 6.28696 13.1939C6.1958 13.2317 6.09806 13.2512 5.99935 13.2512C5.90064 13.2512 5.8029 13.2317 5.71173 13.1939C5.62057 13.156 5.53778 13.1006 5.4681 13.0306L1.9681 9.53063C1.89833 9.46087 1.84299 9.37804 1.80524 9.28689C1.76748 9.19574 1.74805 9.09804 1.74805 8.99938C1.74805 8.90072 1.76748 8.80302 1.80524 8.71187C1.84299 8.62072 1.89833 8.53789 1.9681 8.46813C2.03786 8.39837 2.12069 8.34302 2.21184 8.30527C2.30299 8.26751 2.40069 8.24808 2.49935 8.24808C2.59801 8.24808 2.69571 8.26751 2.78686 8.30527C2.87801 8.34302 2.96083 8.39837 3.0306 8.46813L5.99997 11.4375L13.4693 3.96938C13.6102 3.82848 13.8013 3.74933 14.0006 3.74933C14.1999 3.74933 14.391 3.82848 14.5318 3.96938C14.6727 4.11028 14.7519 4.30137 14.7519 4.50063C14.7519 4.69989 14.6727 4.89098 14.5318 5.03188L14.5306 5.03063Z" fill="currentColor"/>
    </symbol>
    <symbol id="identification-badge" viewBox="0 0 24 24">
      <path d="M7.04906 18.6C7.12789 18.6592 7.21761 18.7024 7.31312 18.7269C7.40862 18.7514 7.50802 18.7569 7.60564 18.7429C7.70325 18.729 7.79716 18.696 7.88198 18.6457C7.96681 18.5954 8.0409 18.5289 8.1 18.45C8.55409 17.8445 9.14291 17.3531 9.81983 17.0147C10.4968 16.6762 11.2432 16.5 12 16.5C12.7568 16.5 13.5032 16.6762 14.1802 17.0147C14.8571 17.3531 15.4459 17.8445 15.9 18.45C15.9591 18.5288 16.0331 18.5952 16.1179 18.6454C16.2026 18.6955 16.2964 18.7285 16.3939 18.7425C16.4914 18.7564 16.5907 18.751 16.6861 18.7265C16.7815 18.7021 16.8712 18.6591 16.95 18.6C17.0288 18.5409 17.0952 18.4669 17.1454 18.3821C17.1955 18.2974 17.2285 18.2036 17.2425 18.1061C17.2564 18.0086 17.251 17.9093 17.2265 17.8139C17.2021 17.7185 17.1591 17.6288 17.1 17.55C16.4359 16.6596 15.5503 15.9586 14.5312 15.5166C15.0897 15.0067 15.481 14.3399 15.6537 13.6037C15.8264 12.8675 15.7725 12.0962 15.4991 11.3912C15.2256 10.6862 14.7454 10.0803 14.1215 9.65304C13.4975 9.2258 12.759 8.99718 12.0028 8.99718C11.2466 8.99718 10.5081 9.2258 9.88413 9.65304C9.26019 10.0803 8.77999 10.6862 8.50655 11.3912C8.23311 12.0962 8.17922 12.8675 8.35194 13.6037C8.52466 14.3399 8.91592 15.0067 9.47437 15.5166C8.45328 15.9577 7.56566 16.6588 6.9 17.55C6.78055 17.709 6.72915 17.909 6.75711 18.1059C6.78506 18.3028 6.89008 18.4805 7.04906 18.6ZM12 10.5C12.445 10.5 12.88 10.632 13.25 10.8792C13.62 11.1264 13.9084 11.4778 14.0787 11.889C14.249 12.3001 14.2936 12.7525 14.2068 13.189C14.12 13.6254 13.9057 14.0263 13.591 14.341C13.2763 14.6557 12.8754 14.87 12.439 14.9568C12.0025 15.0436 11.5501 14.999 11.139 14.8287C10.7278 14.6584 10.3764 14.37 10.1292 14C9.88196 13.63 9.75 13.195 9.75 12.75C9.75 12.1533 9.98705 11.581 10.409 11.159C10.831 10.7371 11.4033 10.5 12 10.5ZM18.75 2.25H5.25C4.85218 2.25 4.47064 2.40804 4.18934 2.68934C3.90804 2.97064 3.75 3.35218 3.75 3.75V20.25C3.75 20.6478 3.90804 21.0294 4.18934 21.3107C4.47064 21.592 4.85218 21.75 5.25 21.75H18.75C19.1478 21.75 19.5294 21.592 19.8107 21.3107C20.092 21.0294 20.25 20.6478 20.25 20.25V3.75C20.25 3.35218 20.092 2.97064 19.8107 2.68934C19.5294 2.40804 19.1478 2.25 18.75 2.25ZM18.75 20.25H5.25V3.75H18.75V20.25ZM8.25 6C8.25 5.80109 8.32902 5.61032 8.46967 5.46967C8.61032 5.32902 8.80109 5.25 9 5.25H15C15.1989 5.25 15.3897 5.32902 15.5303 5.46967C15.671 5.61032 15.75 5.80109 15.75 6C15.75 6.19891 15.671 6.38968 15.5303 6.53033C15.3897 6.67098 15.1989 6.75 15 6.75H9C8.80109 6.75 8.61032 6.67098 8.46967 6.53033C8.32902 6.38968 8.25 6.19891 8.25 6Z" fill="currentColor"/>
    </symbol>
    <symbol id="x" viewBox="0 0 24 24">
      <path d="M19.2806 18.2193C19.3502 18.289 19.4055 18.3717 19.4432 18.4628C19.4809 18.5538 19.5003 18.6514 19.5003 18.7499C19.5003 18.8485 19.4809 18.9461 19.4432 19.0371C19.4055 19.1281 19.3502 19.2109 19.2806 19.2806C19.2109 19.3502 19.1281 19.4055 19.0371 19.4432C18.9461 19.4809 18.8485 19.5003 18.7499 19.5003C18.6514 19.5003 18.5538 19.4809 18.4628 19.4432C18.3717 19.4055 18.289 19.3502 18.2193 19.2806L11.9999 13.0602L5.78055 19.2806C5.63982 19.4213 5.44895 19.5003 5.24993 19.5003C5.05091 19.5003 4.86003 19.4213 4.7193 19.2806C4.57857 19.1398 4.49951 18.949 4.49951 18.7499C4.49951 18.5509 4.57857 18.36 4.7193 18.2193L10.9396 11.9999L4.7193 5.78055C4.57857 5.63982 4.49951 5.44895 4.49951 5.24993C4.49951 5.05091 4.57857 4.86003 4.7193 4.7193C4.86003 4.57857 5.05091 4.49951 5.24993 4.49951C5.44895 4.49951 5.63982 4.57857 5.78055 4.7193L11.9999 10.9396L18.2193 4.7193C18.36 4.57857 18.5509 4.49951 18.7499 4.49951C18.949 4.49951 19.1398 4.57857 19.2806 4.7193C19.4213 4.86003 19.5003 5.05091 19.5003 5.24993C19.5003 5.44895 19.4213 5.63982 19.2806 5.78055L13.0602 11.9999L19.2806 18.2193Z" fill="currentColor"/>
    </symbol>
    <symbol id="sun-horizon" viewBox="0 0 24 24">
      <path d="M22.5 14.25H18.7078C18.7355 14.0009 18.7496 13.7506 18.75 13.5C18.75 11.7098 18.0388 9.99289 16.773 8.72702C15.5071 7.46115 13.7902 6.74999 12 6.74999C10.2098 6.74999 8.4929 7.46115 7.22703 8.72702C5.96116 9.99289 5.25 11.7098 5.25 13.5C5.25042 13.7506 5.26451 14.0009 5.29219 14.25H1.5C1.30109 14.25 1.11032 14.329 0.96967 14.4697C0.829018 14.6103 0.75 14.8011 0.75 15C0.75 15.1989 0.829018 15.3897 0.96967 15.5303C1.11032 15.671 1.30109 15.75 1.5 15.75H22.5C22.6989 15.75 22.8897 15.671 23.0303 15.5303C23.171 15.3897 23.25 15.1989 23.25 15C23.25 14.8011 23.171 14.6103 23.0303 14.4697C22.8897 14.329 22.6989 14.25 22.5 14.25ZM6.75 13.5C6.74862 12.778 6.89617 12.0635 7.18341 11.4012C7.47066 10.7388 7.89143 10.1428 8.41943 9.65044C8.94743 9.15805 9.57131 8.77985 10.2521 8.53949C10.9329 8.29912 11.6559 8.20175 12.376 8.25346C13.0961 8.30517 13.7978 8.50485 14.4373 8.84001C15.0767 9.17518 15.6402 9.63863 16.0924 10.2014C16.5446 10.7642 16.8759 11.4142 17.0656 12.1108C17.2553 12.8074 17.2992 13.5356 17.1947 14.25H6.80531C6.76901 14.0016 6.75053 13.751 6.75 13.5ZM20.25 18.75C20.25 18.9489 20.171 19.1397 20.0303 19.2803C19.8897 19.421 19.6989 19.5 19.5 19.5H4.5C4.30109 19.5 4.11032 19.421 3.96967 19.2803C3.82902 19.1397 3.75 18.9489 3.75 18.75C3.75 18.5511 3.82902 18.3603 3.96967 18.2197C4.11032 18.079 4.30109 18 4.5 18H19.5C19.6989 18 19.8897 18.079 20.0303 18.2197C20.171 18.3603 20.25 18.5511 20.25 18.75ZM6.82875 4.08562C6.73974 3.90759 6.72509 3.7015 6.78803 3.51267C6.85097 3.32384 6.98635 3.16776 7.16437 3.07874C7.3424 2.98973 7.5485 2.97508 7.73732 3.03802C7.92615 3.10097 8.08224 3.23634 8.17125 3.41437L8.92125 4.91437C8.96533 5.00252 8.99161 5.09849 8.99859 5.19679C9.00558 5.2951 8.99313 5.39382 8.96197 5.48732C8.9308 5.58081 8.88153 5.66726 8.81695 5.74171C8.75238 5.81616 8.67377 5.87717 8.58563 5.92124C8.49748 5.96532 8.40151 5.9916 8.3032 5.99859C8.20489 6.00557 8.10617 5.99313 8.01268 5.96196C7.91918 5.9308 7.83274 5.88152 7.75828 5.81695C7.68383 5.75237 7.62282 5.67377 7.57875 5.58562L6.82875 4.08562ZM1.57875 8.66437C1.62286 8.57625 1.6839 8.4977 1.75838 8.43318C1.83286 8.36867 1.91933 8.31947 2.01284 8.28839C2.10634 8.25731 2.20506 8.24495 2.30334 8.25204C2.40162 8.25912 2.49754 8.28551 2.58562 8.32968L4.08563 9.07968C4.26353 9.16869 4.39878 9.32473 4.46164 9.51347C4.52449 9.70221 4.50979 9.90818 4.42078 10.0861C4.33177 10.264 4.17573 10.3992 3.98699 10.4621C3.79825 10.525 3.59228 10.5103 3.41437 10.4212L1.91438 9.67124C1.82618 9.62722 1.74753 9.56624 1.68292 9.49179C1.61831 9.41734 1.56901 9.33089 1.53784 9.23738C1.50667 9.14386 1.49424 9.04512 1.50126 8.9468C1.50828 8.84848 1.53461 8.75251 1.57875 8.66437ZM19.5787 10.0856C19.4899 9.90771 19.4753 9.7018 19.5383 9.51316C19.6012 9.32452 19.7365 9.1686 19.9144 9.07968L21.4144 8.32968C21.5025 8.28561 21.5984 8.25931 21.6966 8.2523C21.7949 8.24529 21.8935 8.2577 21.987 8.28882C22.0804 8.31995 22.1669 8.36917 22.2413 8.43369C22.3157 8.4982 22.3767 8.57675 22.4208 8.66484C22.4649 8.75293 22.4911 8.84883 22.4982 8.94708C22.5052 9.04533 22.4928 9.144 22.4616 9.23745C22.4305 9.33091 22.3813 9.41731 22.3168 9.49174C22.2523 9.56617 22.1737 9.62717 22.0856 9.67124L20.5856 10.4212C20.4975 10.4654 20.4015 10.4917 20.3032 10.4987C20.2049 10.5058 20.1061 10.4933 20.0126 10.4621C19.9191 10.431 19.8326 10.3817 19.7582 10.3171C19.6838 10.2525 19.6228 10.1738 19.5787 10.0856ZM15.0787 4.91437L15.8287 3.41437C15.9178 3.23634 16.0739 3.10097 16.2627 3.03802C16.4515 2.97508 16.6576 2.98973 16.8356 3.07874C17.0137 3.16776 17.149 3.32384 17.212 3.51267C17.2749 3.7015 17.2603 3.90759 17.1713 4.08562L16.4213 5.58562C16.3322 5.76364 16.1761 5.89902 15.9873 5.96196C15.7985 6.0249 15.5924 6.01026 15.4144 5.92124C15.2363 5.83223 15.101 5.67614 15.038 5.48732C14.9751 5.29849 14.9897 5.09239 15.0787 4.91437Z" fill="currentColor"/>
    </symbol>
    <symbol id="sun" viewBox="0 0 24 24">
      <path d="M11.25 3.75V1.5C11.25 1.30109 11.329 1.11032 11.4697 0.96967C11.6103 0.829018 11.8011 0.75 12 0.75C12.1989 0.75 12.3897 0.829018 12.5303 0.96967C12.671 1.11032 12.75 1.30109 12.75 1.5V3.75C12.75 3.94891 12.671 4.13968 12.5303 4.28033C12.3897 4.42098 12.1989 4.5 12 4.5C11.8011 4.5 11.6103 4.42098 11.4697 4.28033C11.329 4.13968 11.25 3.94891 11.25 3.75ZM18 12C18 13.1867 17.6481 14.3467 16.9888 15.3334C16.3295 16.3201 15.3925 17.0892 14.2961 17.5433C13.1997 17.9974 11.9933 18.1162 10.8295 17.8847C9.66557 17.6532 8.59647 17.0818 7.75736 16.2426C6.91824 15.4035 6.3468 14.3344 6.11529 13.1705C5.88378 12.0067 6.0026 10.8003 6.45672 9.7039C6.91085 8.60754 7.67988 7.67047 8.66658 7.01118C9.65327 6.35189 10.8133 6 12 6C13.5908 6.00174 15.1159 6.63444 16.2407 7.75928C17.3656 8.88412 17.9983 10.4092 18 12ZM16.5 12C16.5 11.11 16.2361 10.24 15.7416 9.49993C15.2471 8.75991 14.5443 8.18314 13.7221 7.84254C12.8998 7.50195 11.995 7.41283 11.1221 7.58647C10.2492 7.7601 9.44736 8.18868 8.81802 8.81802C8.18868 9.44736 7.7601 10.2492 7.58647 11.1221C7.41283 11.995 7.50195 12.8998 7.84254 13.7221C8.18314 14.5443 8.75991 15.2471 9.49993 15.7416C10.24 16.2361 11.11 16.5 12 16.5C13.1931 16.4988 14.337 16.0243 15.1806 15.1806C16.0243 14.337 16.4988 13.1931 16.5 12ZM5.46938 6.53063C5.61011 6.67136 5.80098 6.75042 6 6.75042C6.19902 6.75042 6.38989 6.67136 6.53063 6.53063C6.67136 6.38989 6.75042 6.19902 6.75042 6C6.75042 5.80098 6.67136 5.61011 6.53063 5.46938L5.03062 3.96938C4.88989 3.82864 4.69902 3.74958 4.5 3.74958C4.30098 3.74958 4.11011 3.82864 3.96938 3.96938C3.82864 4.11011 3.74958 4.30098 3.74958 4.5C3.74958 4.69902 3.82864 4.88989 3.96938 5.03062L5.46938 6.53063ZM5.46938 17.4694L3.96938 18.9694C3.82864 19.1101 3.74958 19.301 3.74958 19.5C3.74958 19.699 3.82864 19.8899 3.96938 20.0306C4.11011 20.1714 4.30098 20.2504 4.5 20.2504C4.69902 20.2504 4.88989 20.1714 5.03062 20.0306L6.53063 18.5306C6.60031 18.4609 6.65558 18.3782 6.6933 18.2872C6.73101 18.1961 6.75042 18.0985 6.75042 18C6.75042 17.9015 6.73101 17.8039 6.6933 17.7128C6.65558 17.6218 6.60031 17.5391 6.53063 17.4694C6.46094 17.3997 6.37822 17.3444 6.28717 17.3067C6.19613 17.269 6.09855 17.2496 6 17.2496C5.90145 17.2496 5.80387 17.269 5.71283 17.3067C5.62178 17.3444 5.53906 17.3997 5.46938 17.4694ZM18 6.75C18.0985 6.75008 18.1961 6.73074 18.2871 6.6931C18.3782 6.65546 18.4609 6.60025 18.5306 6.53063L20.0306 5.03062C20.1714 4.88989 20.2504 4.69902 20.2504 4.5C20.2504 4.30098 20.1714 4.11011 20.0306 3.96938C19.8899 3.82864 19.699 3.74958 19.5 3.74958C19.301 3.74958 19.1101 3.82864 18.9694 3.96938L17.4694 5.46938C17.3644 5.57427 17.2928 5.70796 17.2639 5.85352C17.2349 5.99908 17.2497 6.14998 17.3065 6.28709C17.3633 6.42421 17.4596 6.54139 17.583 6.62379C17.7065 6.70619 17.8516 6.75012 18 6.75ZM18.5306 17.4694C18.3899 17.3286 18.199 17.2496 18 17.2496C17.801 17.2496 17.6101 17.3286 17.4694 17.4694C17.3286 17.6101 17.2496 17.801 17.2496 18C17.2496 18.199 17.3286 18.3899 17.4694 18.5306L18.9694 20.0306C19.0391 20.1003 19.1218 20.1556 19.2128 20.1933C19.3039 20.231 19.4015 20.2504 19.5 20.2504C19.5985 20.2504 19.6961 20.231 19.7872 20.1933C19.8782 20.1556 19.9609 20.1003 20.0306 20.0306C20.1003 19.9609 20.1556 19.8782 20.1933 19.7872C20.231 19.6961 20.2504 19.5985 20.2504 19.5C20.2504 19.4015 20.231 19.3039 20.1933 19.2128C20.1556 19.1218 20.1003 19.0391 20.0306 18.9694L18.5306 17.4694ZM4.5 12C4.5 11.8011 4.42098 11.6103 4.28033 11.4697C4.13968 11.329 3.94891 11.25 3.75 11.25H1.5C1.30109 11.25 1.11032 11.329 0.96967 11.4697C0.829018 11.6103 0.75 11.8011 0.75 12C0.75 12.1989 0.829018 12.3897 0.96967 12.5303C1.11032 12.671 1.30109 12.75 1.5 12.75H3.75C3.94891 12.75 4.13968 12.671 4.28033 12.5303C4.42098 12.3897 4.5 12.1989 4.5 12ZM12 19.5C11.8011 19.5 11.6103 19.579 11.4697 19.7197C11.329 19.8603 11.25 20.0511 11.25 20.25V22.5C11.25 22.6989 11.329 22.8897 11.4697 23.0303C11.6103 23.171 11.8011 23.25 12 23.25C12.1989 23.25 12.3897 23.171 12.5303 23.0303C12.671 22.8897 12.75 22.6989 12.75 22.5V20.25C12.75 20.0511 12.671 19.8603 12.5303 19.7197C12.3897 19.579 12.1989 19.5 12 19.5ZM22.5 11.25H20.25C20.0511 11.25 19.8603 11.329 19.7197 11.4697C19.579 11.6103 19.5 11.8011 19.5 12C19.5 12.1989 19.579 12.3897 19.7197 12.5303C19.8603 12.671 20.0511 12.75 20.25 12.75H22.5C22.6989 12.75 22.8897 12.671 23.0303 12.5303C23.171 12.3897 23.25 12.1989 23.25 12C23.25 11.8011 23.171 11.6103 23.0303 11.4697C22.8897 11.329 22.6989 11.25 22.5 11.25Z" fill="currentColor"/>
    </symbol>
  </defs>
</svg>