<svg xmlns="http://www.w3.org/2000/svg" style="display: none;">
  <defs>
    <symbol id="brain" viewBox="0 0 24 24">
      <path d="M23.25 11.625C23.249 10.6316 22.9667 9.65871 22.4358 8.81903C21.9049 7.97936 21.147 7.30719 20.25 6.88031V6.75C20.2491 5.78364 19.9372 4.84323 19.3603 4.06792C18.7835 3.2926 17.9724 2.72357 17.0471 2.44503C16.1217 2.16648 15.1313 2.19321 14.2223 2.52126C13.3134 2.84931 12.5341 3.46126 12 4.26656C11.4658 3.46126 10.6866 2.84931 9.7776 2.52126C8.86863 2.19321 7.8782 2.16648 6.95286 2.44503C6.02752 2.72357 5.21643 3.2926 4.63959 4.06792C4.06276 4.84323 3.75084 5.78364 3.74997 6.75V6.88031C2.85216 7.30602 2.09359 7.97776 1.56242 8.81749C1.03124 9.65722 0.749268 10.6304 0.749268 11.6241C0.749268 12.6177 1.03124 13.5909 1.56242 14.4306C2.09359 15.2704 2.85216 15.9421 3.74997 16.3678V16.5C3.75084 17.4664 4.06276 18.4068 4.63959 19.1821C5.21643 19.9574 6.02752 20.5264 6.95286 20.805C7.8782 21.0835 8.86863 21.0568 9.7776 20.7287C10.6866 20.4007 11.4658 19.7887 12 18.9834C12.5341 19.7887 13.3134 20.4007 14.2223 20.7287C15.1313 21.0568 16.1217 21.0835 17.0471 20.805C17.9724 20.5264 18.7835 19.9574 19.3603 19.1821C19.9372 18.4068 20.2491 17.4664 20.25 16.5V16.3678C21.1469 15.9413 21.9046 15.2694 22.4356 14.4301C22.9665 13.5907 23.2488 12.6182 23.25 11.625ZM8.24997 19.5C7.51023 19.4999 6.79662 19.2265 6.24618 18.7323C5.69575 18.2381 5.3473 17.558 5.26778 16.8225C5.51032 16.8571 5.75498 16.8746 5.99997 16.875H6.74997C6.94888 16.875 7.13965 16.796 7.2803 16.6553C7.42095 16.5147 7.49997 16.3239 7.49997 16.125C7.49997 15.9261 7.42095 15.7353 7.2803 15.5947C7.13965 15.454 6.94888 15.375 6.74997 15.375H5.99997C5.11456 15.376 4.25734 15.0637 3.58008 14.4934C2.90281 13.9231 2.4492 13.1315 2.29954 12.2588C2.14989 11.3862 2.31384 10.4887 2.76239 9.72529C3.21093 8.9619 3.91512 8.38184 4.75028 8.08781C4.89641 8.03608 5.02292 7.94033 5.1124 7.81374C5.20189 7.68716 5.24995 7.53596 5.24997 7.38094V6.75C5.24997 5.95435 5.56604 5.19129 6.12865 4.62868C6.69126 4.06607 7.45432 3.75 8.24997 3.75C9.04562 3.75 9.80868 4.06607 10.3713 4.62868C10.9339 5.19129 11.25 5.95435 11.25 6.75V13.1494C10.4264 12.4086 9.35765 11.9992 8.24997 12C8.05106 12 7.86029 12.079 7.71964 12.2197C7.57899 12.3603 7.49997 12.5511 7.49997 12.75C7.49997 12.9489 7.57899 13.1397 7.71964 13.2803C7.86029 13.421 8.05106 13.5 8.24997 13.5C9.04562 13.5 9.80868 13.8161 10.3713 14.3787C10.9339 14.9413 11.25 15.7044 11.25 16.5C11.25 17.2956 10.9339 18.0587 10.3713 18.6213C9.80868 19.1839 9.04562 19.5 8.24997 19.5ZM18 15.375H17.25C17.0511 15.375 16.8603 15.454 16.7196 15.5947C16.579 15.7353 16.5 15.9261 16.5 16.125C16.5 16.3239 16.579 16.5147 16.7196 16.6553C16.8603 16.796 17.0511 16.875 17.25 16.875H18C18.245 16.8746 18.4896 16.8571 18.7322 16.8225C18.6699 17.3988 18.4419 17.9446 18.076 18.3941C17.7101 18.8436 17.2217 19.1774 16.6701 19.3553C16.1184 19.5331 15.5271 19.5474 14.9675 19.3963C14.4079 19.2452 13.9041 18.9352 13.517 18.5039C13.1298 18.0726 12.8759 17.5383 12.7859 16.9657C12.6959 16.3931 12.7737 15.8067 13.0099 15.2775C13.2462 14.7482 13.6306 14.2986 14.1169 13.9832C14.6031 13.6677 15.1704 13.4999 15.75 13.5C15.9489 13.5 16.1396 13.421 16.2803 13.2803C16.421 13.1397 16.5 12.9489 16.5 12.75C16.5 12.5511 16.421 12.3603 16.2803 12.2197C16.1396 12.079 15.9489 12 15.75 12C14.6423 11.9992 13.5736 12.4086 12.75 13.1494V6.75C12.75 5.95435 13.066 5.19129 13.6287 4.62868C14.1913 4.06607 14.9543 3.75 15.75 3.75C16.5456 3.75 17.3087 4.06607 17.8713 4.62868C18.4339 5.19129 18.75 5.95435 18.75 6.75V7.38094C18.75 7.53596 18.7981 7.68716 18.8875 7.81374C18.977 7.94033 19.1035 8.03608 19.2497 8.08781C20.0848 8.38184 20.789 8.9619 21.2376 9.72529C21.6861 10.4887 21.8501 11.3862 21.7004 12.2588C21.5507 13.1315 21.0971 13.9231 20.4199 14.4934C19.7426 15.0637 18.8854 15.376 18 15.375ZM19.5 10.5C19.5 10.6989 19.421 10.8897 19.2803 11.0303C19.1396 11.171 18.9489 11.25 18.75 11.25H18.375C17.4799 11.25 16.6214 10.8944 15.9885 10.2615C15.3556 9.62855 15 8.77011 15 7.875V7.5C15 7.30109 15.079 7.11032 15.2196 6.96967C15.3603 6.82902 15.5511 6.75 15.75 6.75C15.9489 6.75 16.1396 6.82902 16.2803 6.96967C16.421 7.11032 16.5 7.30109 16.5 7.5V7.875C16.5 8.37228 16.6975 8.84919 17.0491 9.20083C17.4008 9.55246 17.8777 9.75 18.375 9.75H18.75C18.9489 9.75 19.1396 9.82902 19.2803 9.96967C19.421 10.1103 19.5 10.3011 19.5 10.5ZM5.62497 11.25H5.24997C5.05106 11.25 4.86029 11.171 4.71964 11.0303C4.57899 10.8897 4.49997 10.6989 4.49997 10.5C4.49997 10.3011 4.57899 10.1103 4.71964 9.96967C4.86029 9.82902 5.05106 9.75 5.24997 9.75H5.62497C6.12225 9.75 6.59917 9.55246 6.9508 9.20083C7.30243 8.84919 7.49997 8.37228 7.49997 7.875V7.5C7.49997 7.30109 7.57899 7.11032 7.71964 6.96967C7.86029 6.82902 8.05106 6.75 8.24997 6.75C8.44888 6.75 8.63965 6.82902 8.7803 6.96967C8.92095 7.11032 8.99997 7.30109 8.99997 7.5V7.875C8.99997 8.77011 8.64439 9.62855 8.01146 10.2615C7.37852 10.8944 6.52008 11.25 5.62497 11.25Z" fill="currentColor"/>
    </symbol>
    <symbol id="briefcase" viewBox="0 0 24 24">
      <path d="M20.25 5.25H16.5V4.5C16.5 3.90326 16.2629 3.33097 15.841 2.90901C15.419 2.48705 14.8467 2.25 14.25 2.25H9.75C9.15326 2.25 8.58097 2.48705 8.15901 2.90901C7.73705 3.33097 7.5 3.90326 7.5 4.5V5.25H3.75C3.35218 5.25 2.97064 5.40804 2.68934 5.68934C2.40804 5.97064 2.25 6.35218 2.25 6.75V18.75C2.25 19.1478 2.40804 19.5294 2.68934 19.8107C2.97064 20.092 3.35218 20.25 3.75 20.25H20.25C20.6478 20.25 21.0294 20.092 21.3107 19.8107C21.592 19.5294 21.75 19.1478 21.75 18.75V6.75C21.75 6.35218 21.592 5.97064 21.3107 5.68934C21.0294 5.40804 20.6478 5.25 20.25 5.25ZM9 4.5C9 4.30109 9.07902 4.11032 9.21967 3.96967C9.36032 3.82902 9.55109 3.75 9.75 3.75H14.25C14.4489 3.75 14.6397 3.82902 14.7803 3.96967C14.921 4.11032 15 4.30109 15 4.5V5.25H9V4.5ZM20.25 6.75V10.6509C17.7185 12.0289 14.8822 12.7505 12 12.75C9.11794 12.7505 6.28165 12.0292 3.75 10.6519V6.75H20.25ZM20.25 18.75H3.75V12.3412C6.31868 13.5977 9.1405 14.2506 12 14.25C14.8596 14.2501 17.6813 13.5969 20.25 12.3403V18.75ZM9.75 10.5C9.75 10.3011 9.82902 10.1103 9.96967 9.96967C10.1103 9.82902 10.3011 9.75 10.5 9.75H13.5C13.6989 9.75 13.8897 9.82902 14.0303 9.96967C14.171 10.1103 14.25 10.3011 14.25 10.5C14.25 10.6989 14.171 10.8897 14.0303 11.0303C13.8897 11.171 13.6989 11.25 13.5 11.25H10.5C10.3011 11.25 10.1103 11.171 9.96967 11.0303C9.82902 10.8897 9.75 10.6989 9.75 10.5Z" fill="currentColor"/>
    </symbol>
    <symbol id="notebook" viewBox="0 0 24 24">
      <path d="M17.25 10.5C17.25 10.6989 17.171 10.8897 17.0303 11.0303C16.8897 11.171 16.6989 11.25 16.5 11.25H10.5C10.3011 11.25 10.1103 11.171 9.96967 11.0303C9.82902 10.8897 9.75 10.6989 9.75 10.5C9.75 10.3011 9.82902 10.1103 9.96967 9.96967C10.1103 9.82902 10.3011 9.75 10.5 9.75H16.5C16.6989 9.75 16.8897 9.82902 17.0303 9.96967C17.171 10.1103 17.25 10.3011 17.25 10.5ZM16.5 12.75H10.5C10.3011 12.75 10.1103 12.829 9.96967 12.9697C9.82902 13.1103 9.75 13.3011 9.75 13.5C9.75 13.6989 9.82902 13.8897 9.96967 14.0303C10.1103 14.171 10.3011 14.25 10.5 14.25H16.5C16.6989 14.25 16.8897 14.171 17.0303 14.0303C17.171 13.8897 17.25 13.6989 17.25 13.5C17.25 13.3011 17.171 13.1103 17.0303 12.9697C16.8897 12.829 16.6989 12.75 16.5 12.75ZM21 4.5V19.5C21 19.8978 20.842 20.2794 20.5607 20.5607C20.2794 20.842 19.8978 21 19.5 21H4.5C4.10218 21 3.72064 20.842 3.43934 20.5607C3.15804 20.2794 3 19.8978 3 19.5V4.5C3 4.10218 3.15804 3.72064 3.43934 3.43934C3.72064 3.15804 4.10218 3 4.5 3H19.5C19.8978 3 20.2794 3.15804 20.5607 3.43934C20.842 3.72064 21 4.10218 21 4.5ZM4.5 19.5H6.75V4.5H4.5V19.5ZM19.5 19.5V4.5H8.25V19.5H19.5Z" fill="currentColor"/>
    </symbol>
  </defs>
</svg>